<?xml version="1.0" encoding="UTF-8"?>
<svg width="432px" height="80px" viewBox="0 0 432 80" version="1.1" xmlns="http://www.w3.org/2000/svg" xmlns:xlink="http://www.w3.org/1999/xlink">
    <!-- Generator: Sketch 61.1 (89650) - https://sketch.com -->
    <title>Group</title>
    <desc>Created with Sketch.</desc>
    <g id="Page-1" stroke="none" stroke-width="1" fill="none" fill-rule="evenodd">
        <g id="fastfeet" transform="translate(-116.000000, -127.000000)" fill="#FFFFFF">
            <g id="Group" transform="translate(116.000000, 127.000000)">
                <text id="FASTFEET" font-family="Roboto-BoldItalic, Roboto" font-size="60.952381" font-style="italic" font-weight="bold" letter-spacing="2.03174614">
                    <tspan x="137.688492" y="62.7142857">FASTFEET</tspan>
                </text>
                <g id="noun_fast_29949" fill-rule="nonzero">
                    <path d="M115.363175,53.968254 C89.2577778,53.968254 63.1485714,53.968254 37.0431746,53.968254 C34.0336508,53.968254 34.0336508,58.6298413 37.0431746,58.6298413 C63.1485714,58.6298413 89.2577778,58.6298413 115.363175,58.6298413 C118.372698,58.6285714 118.372698,53.968254 115.363175,53.968254 L115.363175,53.968254 Z" id="Path"></path>
                    <path d="M121.271746,40.6907937 C97.1320635,40.6907937 72.9911111,40.6907937 48.8526984,40.6907937 C45.9625397,40.6907937 45.9625397,45.1746032 48.8526984,45.1746032 C72.9898413,45.1746032 97.1320635,45.1746032 121.271746,45.1746032 C124.159365,45.1746032 124.159365,40.6907937 121.271746,40.6907937 L121.271746,40.6907937 Z" id="Path"></path>
                    <path d="M106.972063,27.5492063 C80.8653968,27.5492063 54.7574603,27.5492063 28.6507937,27.5492063 C25.6425397,27.5492063 25.6425397,32.2095248 28.6507937,32.2095248 C54.7574603,32.2095248 80.8653968,32.2095248 106.972063,32.2095248 C109.979048,32.2120635 109.979048,27.5492063 106.972063,27.5492063 L106.972063,27.5492063 Z" id="Path"></path>
                    <path d="M34.2431746,79.607619 C22.9326984,79.607619 13.7301587,70.4050794 13.7301587,59.0946032 C13.7301587,58.4495238 13.7961905,57.8780952 13.88,57.3587302 C5.72634921,54.5511111 0.053968254,46.7949206 0.053968254,37.9619048 C0.053968254,26.6488889 9.25650794,17.447619 20.568254,17.447619 C21.2209524,17.447619 21.8736508,17.4768254 22.5225397,17.5390476 C24.0273016,7.76634921 32.3231746,0.509206349 42.6342857,0.509206349 C52.3371429,0.509206349 60.7904762,7.39936508 62.7307937,16.8914286 C63.0203175,18.32 62.1009524,19.7180952 60.6711111,20.0101587 C59.2450794,20.2984127 57.8406349,19.3803175 57.5498413,17.9479365 C56.1111111,10.904127 49.8368254,5.79428571 42.6304762,5.79428571 C34.1796825,5.79428571 27.56,12.3631746 27.56,20.7492063 C27.56,21.6253968 27.1269841,22.4469841 26.3980952,22.9396825 C25.6730159,23.4298413 24.7498413,23.5301587 23.935873,23.2050794 L23.4152381,22.9968254 C22.4819048,22.8203175 21.5244444,22.7301587 20.5657143,22.7301587 C12.168254,22.7301587 5.33777778,29.5606349 5.33777778,37.9606349 C5.33777778,45.2215873 10.4984127,51.5047619 17.6095238,52.9028571 C18.3930159,53.0552381 19.0634921,53.5580952 19.4368254,54.2577778 C19.8088889,54.9650794 19.8431746,55.8006349 19.5307937,56.5346032 L19.3060317,57.0603175 C19.2768254,57.2177778 19.2450794,57.3726984 19.215873,57.5263492 C19.1015873,58.1206349 19.0101587,58.5904762 19.0101587,59.0933333 C19.0101587,67.4907937 25.8406349,74.3212698 34.2380952,74.3212698 C40.44,74.3212698 45.9714286,70.6184127 48.3320635,64.8812698 C48.8844444,63.5314286 50.4298413,62.8863492 51.7796825,63.4412698 C53.1295238,63.9961905 53.7746032,65.5403175 53.2184127,66.8901587 C50.047619,74.6184127 42.5974603,79.607619 34.2431746,79.607619 Z" id="Path"></path>
                </g>
            </g>
        </g>
    </g>
</svg>